<svg width="44" height="31" viewBox="0 0 44 31" fill="none" xmlns="http://www.w3.org/2000/svg">
<path d="M2.46356 13.6975L16.0606 1.0181L19.0191 4.19074C20.4196 5.69262 20.3375 8.04549 18.8356 9.44602L7.95797 19.5895L2.46356 13.6975Z" fill="#FAFAFA"/>
<path d="M2.25224 13.4709L16.0759 0.580164L16.0453 1.45604L2.67489 13.9241L2.25224 13.4709ZM19.2457 3.97941C20.7629 5.60645 20.6739 8.15539 19.0469 9.67263L8.16929 19.8162L7.74665 19.3629L18.6242 9.2194C20.001 7.93558 20.0763 5.77879 18.7925 4.40206L19.2457 3.97941ZM7.95797 19.5895L2.46356 13.6975L7.95797 19.5895ZM16.0759 0.580164L19.2457 3.97941C20.7629 5.60645 20.6739 8.15539 19.0469 9.67263L18.6242 9.2194C20.001 7.93558 20.0763 5.77879 18.7925 4.40206L16.0453 1.45604L16.0759 0.580164Z" fill="#0B6BB5"/>
<path d="M11.5134 16.2969L20.7441 26.3566L17.3194 29.499C16.1846 30.5403 14.4205 30.4645 13.3792 29.3297L6.03399 21.3247L11.5134 16.2969Z" fill="#FAFAFA" stroke="#0B6BB5" stroke-width="0.619718"/>
<rect x="27.8873" y="4.09869" width="7.43662" height="23.5493" rx="3.09859" fill="#0B6BB5"/>
<rect x="20.1409" y="12.4649" width="23.5493" height="6.8169" rx="2.78873" fill="#FAFAFA" stroke="#0B6BB5" stroke-width="0.619718"/>
<path d="M0 4.09859C0 2.38728 1.38729 1 3.09859 1H8.05634V30.1268H3.09859C1.38729 30.1268 0 28.7395 0 27.0282V4.09859Z" fill="#0B6BB5"/>
</svg>
