<svg width="71" height="40" viewBox="0 0 71 49" fill="none" xmlns="http://www.w3.org/2000/svg">
<path d="M3.97525 21.4891L25.9159 1.02918L30.6899 6.14866C32.9498 8.57215 32.8172 12.3688 30.3937 14.6288L12.8412 30.9967L3.97525 21.4891Z" fill="#FAFAFA"/>
<path d="M3.63425 21.1235L25.9405 0.322509L25.8912 1.73586L4.31625 21.8548L3.63425 21.1235ZM31.0555 5.80766C33.5038 8.43311 33.3602 12.5462 30.7347 14.9944L13.1822 31.3624L12.5002 30.6311L30.0527 14.2631C32.2743 12.1915 32.3958 8.71119 30.3242 6.48966L31.0555 5.80766ZM12.8412 30.9967L3.97525 21.4891L12.8412 30.9967ZM25.9405 0.322509L31.0555 5.80766C33.5038 8.43311 33.3602 12.5462 30.7347 14.9944L30.0527 14.2631C32.2743 12.1915 32.3958 8.71119 30.3242 6.48966L25.8912 1.73586L25.9405 0.322509Z" fill="#0B6BB5"/>
<path d="M18.5784 25.6837L33.4734 41.9165L27.9472 46.9872C26.116 48.6674 23.2694 48.5451 21.5891 46.7139L9.73662 33.7969L18.5784 25.6837Z" fill="#FAFAFA" stroke="#0B6BB5"/>
<rect x="45" y="6" width="12" height="38" rx="5" fill="#0B6BB5"/>
<rect x="32.5" y="19.5" width="38" height="11" rx="4.5" fill="#FAFAFA" stroke="#0B6BB5"/>
<path d="M0 6C0 3.23858 2.23858 1 5 1H13V48H5C2.23858 48 0 45.7614 0 43V6Z" fill="#0B6BB5"/>
</svg>
