<svg width="71" height="50" viewBox="0 0 71 50" fill="none" xmlns="http://www.w3.org/2000/svg">
<path d="M3.29325 21.7578L25.9652 0.615833L25.8665 3.44254L4.65725 23.2205L3.29325 21.7578ZM31.4212 6.46666C34.0578 9.29407 33.9031 13.7235 31.0757 16.3601L13.5232 32.7281L12.1592 31.2654L29.7117 14.8974C31.7313 13.0141 31.8418 9.85024 29.9585 7.83066L31.4212 6.46666ZM12.8412 31.9967L3.97525 22.4891L12.8412 31.9967ZM25.9652 0.615833L31.4212 6.46666C34.0578 9.29407 33.9031 13.7235 31.0757 16.3601L29.7117 14.8974C31.7313 13.0141 31.8418 9.85024 29.9585 7.83066L25.8665 3.44254L25.9652 0.615833Z" fill="#0B6BB5"/>
<path d="M18.548 27.3902L32.7669 42.8861L27.6092 47.6188C25.9815 49.1123 23.4511 49.0036 21.9576 47.3759L10.4431 34.8272L18.548 27.3902Z" stroke="#0B6BB5" stroke-width="2"/>
<rect x="45" y="7" width="12" height="38" rx="5" fill="#0B6BB5"/>
<rect x="33" y="21" width="37" height="10" rx="4" stroke="#0B6BB5" stroke-width="2"/>
<path d="M0 7C0 4.23858 2.23858 2 5 2H13V49H5C2.23858 49 0 46.7614 0 44V7Z" fill="#0B6BB5"/>
</svg>
